<svg xmlns="http://www.w3.org/2000/svg" xmlns:xlink="http://www.w3.org/1999/xlink" viewBox="0 0 250 250" width="250px" height="250px">
<path style=" stroke:none;fill-rule:nonzero;fill:rgb(100%,100%,100%);fill-opacity:1;" d="M 140.9375 0 C 154.6875 31.816406 91.640625 51.464844 85.78125 77.96875 C 80.410156 102.324219 123.242188 130.625 123.28125 130.625 C 116.777344 120.546875 111.992188 112.246094 105.46875 96.5625 C 94.433594 70.039062 172.675781 46.035156 140.9375 0 Z M 182.8125 44.0625 C 182.8125 44.0625 127.5 47.617188 124.6875 82.96875 C 123.4375 98.710938 139.238281 106.992188 139.6875 118.4375 C 140.058594 127.792969 130.3125 135.625 130.3125 135.625 C 130.3125 135.625 148.046875 132.246094 153.59375 117.96875 C 159.746094 102.128906 141.601562 91.425781 143.4375 78.75 C 145.195312 66.621094 182.8125 44.0625 182.8125 44.0625 Z M 95.9375 125.78125 C 95.9375 125.78125 45.3125 125.058594 45.3125 139.375 C 45.3125 154.335938 111.582031 155.449219 158.90625 146.25 C 158.90625 146.25 171.484375 137.597656 174.84375 134.375 C 143.828125 140.703125 73.125 141.40625 73.125 135.9375 C 73.125 130.898438 95.9375 125.78125 95.9375 125.78125 Z M 193.28125 125.78125 C 188.320312 126.171875 182.96875 128.085938 178.125 131.5625 C 189.53125 129.101562 199.21875 136.171875 199.21875 144.21875 C 199.21875 162.34375 172.96875 179.375 172.96875 179.375 C 172.96875 179.375 213.59375 174.765625 213.59375 145 C 213.59375 131.484375 204.199219 124.921875 193.28125 125.78125 Z M 83.75 153.59375 C 75.976562 153.59375 64.375 159.6875 64.375 165.46875 C 64.375 177.089844 122.8125 186.035156 166.09375 169.0625 L 151.09375 159.84375 C 121.757812 169.238281 67.734375 166.171875 83.75 153.59375 Z M 90.9375 179.6875 C 80.292969 179.6875 73.28125 186.113281 73.28125 190.9375 C 73.28125 205.859375 136.855469 207.363281 162.03125 192.1875 L 146.09375 182.03125 C 127.285156 189.980469 80.078125 191.191406 90.9375 179.6875 Z M 55.46875 193.125 C 38.125 192.773438 26.875 200.566406 26.875 207.03125 C 26.875 241.40625 204.375 239.824219 204.375 204.6875 C 204.375 198.847656 197.636719 196.015625 195.15625 194.6875 C 209.667969 228.28125 49.84375 225.605469 49.84375 205.78125 C 49.84375 201.269531 61.601562 196.953125 72.5 199.0625 L 63.28125 193.75 C 60.566406 193.339844 57.949219 193.183594 55.46875 193.125 Z M 223.125 216.25 C 196.132812 241.835938 127.734375 251.113281 58.90625 235.3125 C 127.714844 263.476562 222.792969 247.675781 223.125 216.25 Z M 223.125 216.25 "/>
</svg>
